<svg width="25" height="25" viewBox="0 0 25 25" fill="none" xmlns="http://www.w3.org/2000/svg">
<rect width="25" height="25" rx="12.5" fill="#EEEEEE"/>
<path fill-rule="evenodd" clip-rule="evenodd" d="M6.79922 9.99648C6.79922 9.99648 7.60351 10.3207 7.575 11.1258C7.54687 11.9312 4.97343 12.2809 4.97343 15.4594C4.97343 18.6379 8.52656 21.1359 12.4801 21.1359C16.4332 21.1359 21.8051 18.8187 21.8051 14.1711C21.8051 6.36797 21.2141 11.775 15.0566 11.775C13.0117 11.775 12.6469 11.077 12.9699 10.6789C14.4973 8.79961 15.0566 3.86406 10.0715 3.86406C6.81875 3.93164 6.0332 6.57734 6.03828 7.21836C6.0414 7.66875 5.56797 7.82109 3.18359 7.72929C2.58359 9.92422 6.79922 9.99648 6.79922 9.99648ZM8.27187 5.94726C8.70312 5.94726 9.05312 6.29765 9.05312 6.72851C9.05312 7.15976 8.70312 7.50976 8.27187 7.50976C7.84101 7.50976 7.49062 7.15976 7.49062 6.72851C7.49062 6.29765 7.84101 5.94726 8.27187 5.94726Z" fill="#393E46"/>
</svg>
